# xmcd CD database file
#
# Track frame offsets:
#	150
#	24047
#	41202
#	63500
#	86687
#	109747
#	134332
#	151060
#	175895
#	193770
#	220125
#
# Disc length: 3254 seconds
#
# Revision: 12
# Processed by: cddbd v1.5.2PL0 Copyright (c) Steve Scherf et al.
# Submitted via: CDex 1.82
#
DISCID=910cb40b
DTITLE=Coldplay - A Rush Of Blood To The Head
DYEAR=2002
DGENRE=Rock
TTITLE0=Politik
TTITLE1=In My Place
TTITLE2=God Put A Smile Upon Your Face
TTITLE3=The Scientist
TTITLE4=Clocks
TTITLE5=Daylight
TTITLE6=Green Eyes
TTITLE7=Warning Sign
TTITLE8=A Whisper
TTITLE9=A Rush Of Blood To The Head
TTITLE10=Amsterdam
EXTD=YEAR: 2002
EXTT0=
EXTT1=
EXTT2=
EXTT3=
EXTT4=
EXTT5=
EXTT6=
EXTT7=
EXTT8=
EXTT9=
EXTT10=
PLAYORDER=
